<svg xmlns="http://www.w3.org/2000/svg" xmlns:xlink="http://www.w3.org/1999/xlink" width="131.108" height="57.54"><defs><linearGradient id="v" x1="892.089" x2="945.555" y1="1254.749" y2="1254.749" gradientTransform="translate(326.811 450.118)scale(.28346)" gradientUnits="userSpaceOnUse" spreadMethod="pad"><stop offset="0" style="stop-opacity:1;stop-color:#1c63b7"/><stop offset=".367" style="stop-opacity:1;stop-color:#5bcaf5"/><stop offset="1" style="stop-opacity:1;stop-color:#73d2f6"/></linearGradient><linearGradient id="u" x1="930.411" x2="881.633" y1="1286.303" y2="1286.303" gradientTransform="translate(326.811 450.118)scale(.28346)" gradientUnits="userSpaceOnUse" spreadMethod="pad"><stop offset="0" style="stop-opacity:1;stop-color:#1c63b7"/><stop offset=".709" style="stop-opacity:1;stop-color:#63c9f3"/><stop offset=".74" style="stop-opacity:1;stop-color:#66cef5"/><stop offset=".767" style="stop-opacity:1;stop-color:#65cdf5"/><stop offset="1" style="stop-opacity:1;stop-color:#1fa8e7"/></linearGradient><linearGradient id="t" x1="922.324" x2="935.107" y1="1219.321" y2="1231.698" gradientTransform="translate(326.811 450.118)scale(.28346)" gradientUnits="userSpaceOnUse" spreadMethod="pad"><stop offset="0" style="stop-opacity:1;stop-color:#33bdf2"/><stop offset=".26" style="stop-opacity:1;stop-color:#66cef5"/><stop offset=".307" style="stop-opacity:1;stop-color:#65ccf5"/><stop offset="1" style="stop-opacity:1;stop-color:#1c63b8"/></linearGradient><linearGradient id="s" x1="888.647" x2="916.494" y1="1231.303" y2="1214.629" gradientTransform="translate(326.811 450.118)scale(.28346)" gradientUnits="userSpaceOnUse" spreadMethod="pad"><stop offset="0" style="stop-opacity:1;stop-color:#1c63b7"/><stop offset=".441" style="stop-opacity:1;stop-color:#65ccf5"/><stop offset=".446" style="stop-opacity:1;stop-color:#66cef5"/><stop offset="1" style="stop-opacity:1;stop-color:#01adef"/></linearGradient><linearGradient id="r" x1="901.834" x2="945.51" y1="1221.924" y2="1200.886" gradientTransform="translate(326.811 450.118)scale(.28346)" gradientUnits="userSpaceOnUse" spreadMethod="pad"><stop offset="0" style="stop-opacity:1;stop-color:#1c63b7"/><stop offset="1" style="stop-opacity:1;stop-color:#0db1ef"/></linearGradient><linearGradient id="q" x1="885.238" x2="911.38" y1="1225.961" y2="1189.678" gradientTransform="translate(326.811 450.118)scale(.28346)" gradientUnits="userSpaceOnUse" spreadMethod="pad"><stop offset="0" style="stop-opacity:1;stop-color:#1c63b7"/><stop offset=".318" style="stop-opacity:1;stop-color:#61c5f1"/><stop offset=".376" style="stop-opacity:1;stop-color:#65cdf5"/><stop offset=".413" style="stop-opacity:1;stop-color:#65ccf5"/><stop offset="1" style="stop-opacity:1;stop-color:#1c63b8"/></linearGradient><linearGradient id="p" x1="803.609" x2="923.488" y1="1200.352" y2="1207.944" gradientTransform="translate(326.811 450.118)scale(.28346)" gradientUnits="userSpaceOnUse" spreadMethod="pad"><stop offset="0" style="stop-opacity:1;stop-color:#1a8ad3"/><stop offset=".487" style="stop-opacity:1;stop-color:#7dd4f6"/><stop offset=".515" style="stop-opacity:1;stop-color:#7fd6f7"/><stop offset=".519" style="stop-opacity:1;stop-color:#7fd6f7"/><stop offset=".521" style="stop-opacity:1;stop-color:#7fd6f7"/><stop offset=".523" style="stop-opacity:1;stop-color:#7fd6f7"/><stop offset="1" style="stop-opacity:1;stop-color:#67cef5"/></linearGradient><linearGradient id="o" x1="844.522" x2="869.013" y1="1174.905" y2="1242.102" gradientTransform="translate(326.811 450.118)scale(.28346)" gradientUnits="userSpaceOnUse" spreadMethod="pad"><stop offset="0" style="stop-opacity:1;stop-color:#1c63b7"/><stop offset=".416" style="stop-opacity:1;stop-color:#12a5e7"/><stop offset="1" style="stop-opacity:1;stop-color:#66cef5"/></linearGradient><linearGradient id="n" x1="880.646" x2="942.676" y1="1229.688" y2="1229.688" gradientTransform="translate(326.811 450.118)scale(.28346)" gradientUnits="userSpaceOnUse" spreadMethod="pad"><stop offset="0" style="stop-opacity:1;stop-color:#73d2f6"/><stop offset="1" style="stop-opacity:1;stop-color:#73d2f6"/></linearGradient><linearGradient id="m" x1="890.956" x2="833.099" y1="1277.823" y2="1309.798" gradientTransform="translate(326.811 450.118)scale(.28346)" gradientUnits="userSpaceOnUse" spreadMethod="pad"><stop offset="0" style="stop-opacity:1;stop-color:#1ea7e7"/><stop offset=".208" style="stop-opacity:1;stop-color:#5ecbf5"/><stop offset=".481" style="stop-opacity:1;stop-color:#79d4f7"/><stop offset=".529" style="stop-opacity:1;stop-color:#7ed6f7"/><stop offset=".539" style="stop-opacity:1;stop-color:#7fd6f7"/><stop offset="1" style="stop-opacity:1;stop-color:#74d2f6"/></linearGradient><linearGradient id="h" x1="867.825" x2="927.242" y1="1243.556" y2="1329.965" gradientTransform="translate(326.811 450.118)scale(.28346)" gradientUnits="userSpaceOnUse" spreadMethod="pad"><stop offset="0" style="stop-opacity:1;stop-color:#59caf5"/><stop offset=".519" style="stop-opacity:1;stop-color:#79d4f7"/><stop offset=".648" style="stop-opacity:1;stop-color:#7ed6f7"/><stop offset=".686" style="stop-opacity:1;stop-color:#7fd6f7"/><stop offset=".712" style="stop-opacity:1;stop-color:#7ed6f7"/><stop offset=".712" style="stop-opacity:1;stop-color:#7ed6f7"/><stop offset="1" style="stop-opacity:1;stop-color:#74d2f6"/></linearGradient><linearGradient id="g" x1="879.804" x2="947.396" y1="1250.784" y2="1237.219" gradientTransform="translate(326.811 450.118)scale(.28346)" gradientUnits="userSpaceOnUse" spreadMethod="pad"><stop offset="0" style="stop-opacity:1;stop-color:#1c63b7"/><stop offset="1" style="stop-opacity:1;stop-color:#59c9f4"/></linearGradient><linearGradient id="f" x1="838.397" x2="895.689" y1="1267.641" y2="1308.67" gradientTransform="translate(326.811 450.118)scale(.28346)" gradientUnits="userSpaceOnUse" spreadMethod="pad"><stop offset="0" style="stop-opacity:1;stop-color:#73d2f6"/><stop offset=".06" style="stop-opacity:1;stop-color:#7cd5f7"/><stop offset=".079" style="stop-opacity:1;stop-color:#7fd6f7"/><stop offset=".092" style="stop-opacity:1;stop-color:#7ed6f7"/><stop offset=".284" style="stop-opacity:1;stop-color:#4ac5f4"/><stop offset=".326" style="stop-opacity:1;stop-color:#18b5f1"/><stop offset=".335" style="stop-opacity:1;stop-color:#05afef"/><stop offset=".337" style="stop-opacity:1;stop-color:#01adef"/><stop offset=".337" style="stop-opacity:1;stop-color:#00adef"/><stop offset=".416" style="stop-opacity:1;stop-color:#59caf5"/><stop offset=".436" style="stop-opacity:1;stop-color:#58c8f4"/><stop offset="1" style="stop-opacity:1;stop-color:#1c63b8"/></linearGradient><linearGradient id="e" x1="832.456" x2="806.087" y1="1243.458" y2="1278.133" gradientTransform="translate(326.811 450.118)scale(.28346)" gradientUnits="userSpaceOnUse" spreadMethod="pad"><stop offset="0" style="stop-opacity:1;stop-color:#1c63b7"/><stop offset="1" style="stop-opacity:1;stop-color:#0db1ef"/></linearGradient><linearGradient id="d" x1="888.121" x2="887.887" y1="1297.78" y2="1334.988" gradientTransform="translate(326.811 450.118)scale(.28346)" gradientUnits="userSpaceOnUse" spreadMethod="pad"><stop offset="0" style="stop-opacity:1;stop-color:#1c63b7"/><stop offset="1" style="stop-opacity:1;stop-color:#0db1ef"/></linearGradient><linearGradient id="c" x1="835.601" x2="869.975" y1="1285.139" y2="1238.824" gradientTransform="translate(326.811 450.118)scale(.28346)" gradientUnits="userSpaceOnUse" spreadMethod="pad"><stop offset="0" style="stop-opacity:1;stop-color:#1c63b7"/><stop offset=".484" style="stop-opacity:1;stop-color:#5cbeee"/><stop offset=".584" style="stop-opacity:1;stop-color:#65ccf5"/><stop offset=".605" style="stop-opacity:1;stop-color:#66cef5"/><stop offset=".608" style="stop-opacity:1;stop-color:#66cef5"/><stop offset=".609" style="stop-opacity:1;stop-color:#66cef5"/><stop offset="1" style="stop-opacity:1;stop-color:#1c63b8"/></linearGradient><linearGradient id="b" x1="811.041" x2="864.172" y1="1242.258" y2="1242.258" gradientTransform="translate(326.811 450.118)scale(.28346)" gradientUnits="userSpaceOnUse" spreadMethod="pad"><stop offset="0" style="stop-opacity:1;stop-color:#1c63b7"/><stop offset="1" style="stop-opacity:1;stop-color:#59c9f4"/></linearGradient><linearGradient id="a" x1="863.286" x2="844.339" y1="1212.589" y2="1180.519" gradientTransform="translate(326.811 450.118)scale(.28346)" gradientUnits="userSpaceOnUse" spreadMethod="pad"><stop offset="0" style="stop-opacity:1;stop-color:#3263b7"/><stop offset=".581" style="stop-opacity:1;stop-color:#68cef6"/><stop offset="1" style="stop-opacity:1;stop-color:#73d2f6"/></linearGradient><linearGradient xlink:href="#a" id="x" x1="863.286" x2="844.339" y1="1212.589" y2="1180.519" gradientTransform="translate(326.811 450.118)scale(.28346)" gradientUnits="userSpaceOnUse" spreadMethod="pad"/><linearGradient xlink:href="#b" id="z" x1="811.041" x2="864.172" y1="1242.258" y2="1242.258" gradientTransform="translate(326.811 450.118)scale(.28346)" gradientUnits="userSpaceOnUse" spreadMethod="pad"/><linearGradient xlink:href="#c" id="B" x1="835.601" x2="869.975" y1="1285.139" y2="1238.824" gradientTransform="translate(326.811 450.118)scale(.28346)" gradientUnits="userSpaceOnUse" spreadMethod="pad"/><linearGradient xlink:href="#d" id="D" x1="888.121" x2="887.887" y1="1297.78" y2="1334.988" gradientTransform="translate(326.811 450.118)scale(.28346)" gradientUnits="userSpaceOnUse" spreadMethod="pad"/><linearGradient xlink:href="#e" id="F" x1="832.456" x2="806.087" y1="1243.458" y2="1278.133" gradientTransform="translate(326.811 450.118)scale(.28346)" gradientUnits="userSpaceOnUse" spreadMethod="pad"/><linearGradient xlink:href="#f" id="H" x1="838.397" x2="895.689" y1="1267.641" y2="1308.67" gradientTransform="translate(326.811 450.118)scale(.28346)" gradientUnits="userSpaceOnUse" spreadMethod="pad"/><linearGradient xlink:href="#g" id="J" x1="879.804" x2="947.396" y1="1250.784" y2="1237.219" gradientTransform="translate(326.811 450.118)scale(.28346)" gradientUnits="userSpaceOnUse" spreadMethod="pad"/><linearGradient xlink:href="#h" id="L" x1="867.825" x2="927.242" y1="1243.556" y2="1329.965" gradientTransform="translate(326.811 450.118)scale(.28346)" gradientUnits="userSpaceOnUse" spreadMethod="pad"/><linearGradient xlink:href="#m" id="N" x1="890.956" x2="833.099" y1="1277.823" y2="1309.798" gradientTransform="translate(326.811 450.118)scale(.28346)" gradientUnits="userSpaceOnUse" spreadMethod="pad"/><linearGradient xlink:href="#n" id="Q" x1="880.646" x2="942.676" y1="1229.688" y2="1229.688" gradientTransform="translate(326.811 450.118)scale(.28346)" gradientUnits="userSpaceOnUse" spreadMethod="pad"/><linearGradient xlink:href="#o" id="S" x1="844.522" x2="869.013" y1="1174.905" y2="1242.102" gradientTransform="translate(326.811 450.118)scale(.28346)" gradientUnits="userSpaceOnUse" spreadMethod="pad"/><linearGradient xlink:href="#p" id="U" x1="803.609" x2="923.488" y1="1200.352" y2="1207.944" gradientTransform="translate(326.811 450.118)scale(.28346)" gradientUnits="userSpaceOnUse" spreadMethod="pad"/><linearGradient xlink:href="#q" id="W" x1="885.238" x2="911.38" y1="1225.961" y2="1189.678" gradientTransform="translate(326.811 450.118)scale(.28346)" gradientUnits="userSpaceOnUse" spreadMethod="pad"/><linearGradient xlink:href="#r" id="Y" x1="901.834" x2="945.51" y1="1221.924" y2="1200.886" gradientTransform="translate(326.811 450.118)scale(.28346)" gradientUnits="userSpaceOnUse" spreadMethod="pad"/><linearGradient xlink:href="#s" id="aa" x1="888.647" x2="916.494" y1="1231.303" y2="1214.629" gradientTransform="translate(326.811 450.118)scale(.28346)" gradientUnits="userSpaceOnUse" spreadMethod="pad"/><linearGradient xlink:href="#t" id="ac" x1="922.324" x2="935.107" y1="1219.321" y2="1231.698" gradientTransform="translate(326.811 450.118)scale(.28346)" gradientUnits="userSpaceOnUse" spreadMethod="pad"/><linearGradient xlink:href="#u" id="af" x1="930.411" x2="881.633" y1="1286.303" y2="1286.303" gradientTransform="translate(326.811 450.118)scale(.28346)" gradientUnits="userSpaceOnUse" spreadMethod="pad"/><linearGradient xlink:href="#v" id="ai" x1="892.089" x2="945.555" y1="1254.749" y2="1254.749" gradientTransform="translate(326.811 450.118)scale(.28346)" gradientUnits="userSpaceOnUse" spreadMethod="pad"/><clipPath id="ah" clipPathUnits="userSpaceOnUse"><path d="M579.687 801.076h15.241v9.437h-15.241z" clip-rule="evenodd"/></clipPath><clipPath id="ag" clipPathUnits="userSpaceOnUse"><path d="M592.877 810.489c-1.873-.165-3.658-.559-5.327-1.228a15.7 15.7 0 0 1-4.625-2.842c-.891-.789-1.697-1.825-2.307-2.949a10 10 0 0 1-.932-2.394c.463.115.96.2 1.491.263.104.337.239.674.422 1.015.382.726.948 1.453 1.716 2.125 1.379 1.154 2.722 1.998 4.239 2.612 1.514.613 3.201 1.004 5.268 1.251 1.743.174 2.106.806 2.004 1.325-.091.457-.56.846-1.513.846q-.204 0-.436-.024"/></clipPath><clipPath id="ae" clipPathUnits="userSpaceOnUse"><path d="M576.723 804.482h14.005v20.515h-14.005z" clip-rule="evenodd"/></clipPath><clipPath id="ad" clipPathUnits="userSpaceOnUse"><path d="M589.938 824.84c-.484-.157-.97-.346-1.438-.561.052-.725-.141-1.936-.688-3.558-1.576-4.678-5.032-11.734-10.676-14.101a48 48 0 0 1-.413-2.138c5.974 2.167 8.889 7.162 10.884 10.675 1.771 3.119 3.121 7.421 2.923 9.841-.002 0-.306-.066-.592-.158"/></clipPath><clipPath id="ab" clipPathUnits="userSpaceOnUse"><path d="M586.928 796.954a51 51 0 0 0 1.602-1.322c1.658.601 3.344 1.567 4.914 2.654-.666.219-1.509.438-2.46.635-1.377-.921-2.753-1.603-4.056-1.967"/></clipPath><clipPath id="Z" clipPathUnits="userSpaceOnUse"><path d="M579.464 799.141c.177-4.034 4.942-4.437 7.092-4.041-.482.507-.973 1.016-1.459 1.521-1.55-.083-4.057.555-4.155 2.859a10 10 0 0 1-1.478-.339"/></clipPath><clipPath id="X" clipPathUnits="userSpaceOnUse"><path d="M583.643 798.849c-.211-.13-.173-.377-.06-.563.075-.116.162-.218.252-.324.285-.33.593-.646.898-.962.95-.989 1.904-1.974 2.838-2.979.96-1.042 1.949-2.226 4.303-4.784 1.786-1.765 3.289.022 1.535 1.771a81 81 0 0 1-5.003 4.731 43 43 0 0 1-2.861 2.255c-.319.23-.644.454-.986.654q-.172.105-.352.187a.9.9 0 0 1-.33.072.5.5 0 0 1-.234-.058"/></clipPath><clipPath id="V" clipPathUnits="userSpaceOnUse"><path d="M577.391 797.835c-.37-.505-.634-1.125-.375-1.918.397-.787.966-1.503 1.719-2.383.113-.129.514-.634 1.057-1.319 2.511-1.426 4.538-2.973 5.072-4.214-.283.873-.961 1.952-1.877 3.242-.377.528-3.005 3.623-3.552 4.303-.781.975-1.713 2.26-.548 3.382-.645-.274-1.163-.635-1.496-1.093"/></clipPath><clipPath id="T" clipPathUnits="userSpaceOnUse"><path d="M555.883 795.796c-2.44-.941-1.775-3.278.832-2.235 4.902 2.022 9.242 2.06 13.583.67 5.14-1.644 8.181-2.698 12.395-7.323 1.267-1.483 2.725-.767 2.271.802-.626 2.597-8.749 6.795-13.91 8.247-2.262.637-5.098 1.053-7.911 1.053-2.596.001-5.171-.353-7.26-1.214"/></clipPath><clipPath id="R" clipPathUnits="userSpaceOnUse"><path d="M566.569 796.741c-2.869-1.994-5.55-4.974-6.555-7.179a10.8 10.8 0 0 1 2.325.284c1.6 2.341 4.002 4.642 6.172 6.038 3.4 2.364 5.636 3.23 6.175-2.114.308-2.763.135-6.257-1.321-8.387a30 30 0 0 1 .884-2.119c1.566 1.681 2.556 5.509 2.317 8.977-.339 2.907-.692 7.161-4.018 7.162-1.396 0-3.316-.748-5.979-2.662"/></clipPath><clipPath id="P" clipPathUnits="userSpaceOnUse"><path d="M575.029 795.917h19.337v5.548H575.03z" clip-rule="evenodd"/></clipPath><clipPath id="O" clipPathUnits="userSpaceOnUse"><path d="M583.495 801.464c-5.04 0-8.466-1.519-6.479-5.547-.258.8.005 1.41.377 1.918 2.187 3.008 12.145 1.734 16.051.451.875.628.922 1.587-.969 2.005-3.062.73-6.251 1.173-8.972 1.173z"/></clipPath><clipPath id="M" clipPathUnits="userSpaceOnUse"><path d="M570.559 825.887c-1.48-5.01-1.524-8.847-.932-11.32.97-4.031 4.404-8.764 5.245-9.876q.16 1.1.349 2.145c-.719.921-3.076 4.813-3.784 7.763-.74 3.082-.473 6.14.716 10.199.132.456.291 1.119.296 1.18-.236.496-.598.706-.945.706-.422 0-.821-.311-.945-.797"/></clipPath><clipPath id="K" clipPathUnits="userSpaceOnUse"><path d="M588.538 826.533c-7.724-2.762-12.624-10.674-14.031-24.857-.097-1.109.955-.985 1.722-.742 1.452 13.361 6.684 21.634 13.709 23.906.198.066.455.119.592.158-.08 1.168-.555 1.665-1.278 1.665q-.327-.001-.714-.13"/></clipPath><clipPath id="I" clipPathUnits="userSpaceOnUse"><path d="M582.059 804.386c-3.069-.56-5.197-1.352-5.587-1.502a67 67 0 0 1-.243-1.95c1.729.596 3.238 1.175 4.816 1.538 6.122 1.402 11.545.549 13.37.23 2.4-.417 2.361 1.564.685 1.908-1.677.345-2.821.417-6.02.417-2.666 0-5.061-.283-7.021-.641"/></clipPath><clipPath id="G" clipPathUnits="userSpaceOnUse"><path d="M572.153 824.798a39 39 0 0 1-.445-1.649c1.217-2.612 1.867-4.728 1.87-7.29-.025-3.905-1.72-11.38-4.16-11.372-.94.002-2.189 2.573-3.331 5.242-1.527 3.562-1.891 6.021-2.141 7.007-.03.134-.036.158-.072.331 0 0-.041.056-.079.102-.748.863-1.653.342-1.691-.523-.041-1.13 1.405-5.476 2.268-7.549 1.828-4.401 3.324-6.656 4.821-6.586 1.945.094 3.787 2.837 4.907 6.22.927 2.8 1.502 5.464 1.502 7.285 0 3.399-1.199 6.167-3.153 9.962a17 17 0 0 0-.296-1.18"/></clipPath><clipPath id="E" clipPathUnits="userSpaceOnUse"><path d="M554.415 809.65c.92-.387 2.821-.983 4.678-2.119 2.233-1.276 4.088-2.729 4.813-3.301.371-.289.533-.4.732-.224.315.287-.271.967-.486 1.246-.865 1.134-3.976 4.954-8.432 6.462a2.2 2.2 0 0 1-.648.104c-1.427.001-2.066-1.633-.657-2.168"/></clipPath><clipPath id="C" clipPathUnits="userSpaceOnUse"><path d="M577.734 826.875c-.077-.935-.28-2.903-.442-4.851a68 68 0 0 1-.177-2.585 10 10 0 0 1-.003-.843 1.4 1.4 0 0 1 .035-.28c.047-.219.186-.295.267-.319.1-.026.32-.028.465.231.043.076.084.175.122.285.077.218.172.536.272.92.203.751.44 1.766.677 2.807.444 1.968.887 3.999 1.003 4.474.263 1.202-.306 1.83-.935 1.83-.584 0-1.22-.543-1.284-1.669"/></clipPath><clipPath id="A" clipPathUnits="userSpaceOnUse"><path d="M563.874 817.067c.008-.039.042-.203.072-.331.167-.657.381-1.965.963-3.828 1.193-1.449 2.453-2.967 3.017-3.658 4.19-5.123 4.215-7.539 3.487-8.826.633.401 1.274 1.05 1.565 1.764.709 1.76-.674 4.209-2.41 6.487-1.683 2.204-6.258 7.853-6.694 8.392"/></clipPath><clipPath id="y" clipPathUnits="userSpaceOnUse"><path d="M557.48 802.876c2.167-1.678 5.953-3.267 8.736-3.507 1.78-.153 3.749.103 5.181 1.044l.016.011c.32.564.494 1.351.235 2.479-.257-1.127-2.349-2.349-5.285-1.945-1.681.147-3.548 1.081-5.029 2.017-1.476.932-2.221 1.605-2.522 1.835-.312.26-.64.37-.944.37-1.046 0-1.782-1.311-.388-2.304"/></clipPath><clipPath id="w" clipPathUnits="userSpaceOnUse"><path d="M560.014 789.562c-.674-1.453-.278-2.178 1.696-1.761 4.114.868 6.278 3.179 8.844 5.606.113.108.2.191.275.266-.146-.928-.232-2.003-.275-3.189-.081-2.397.5-5.79 1.566-7.433.472-.686 1.177-.821 2.129.213-.558 1.222-1.255 2.872-1.66 4.753-.363 1.688-.483 3.566-.054 5.481a86 86 0 0 1-1.647.543l-.59.19q-.474.151-.948.281c-3.62-3.915-6.463-4.892-9.336-4.95"/></clipPath></defs><g style="fill:#1c2a5b;fill-opacity:1"><path d="M0 0a93 93 0 0 1 2.879-.046c3.085 0 5.009 1.675 5.009 4.366 0 2.983-2.549 4.314-5.069 4.314H0zm2.839-9.918h-8.101v2.362h2.095c.323-.003.594.296.595.596l-.007 15.594h-2.683v2.367h7.956c4.571 0 7.77-2.733 7.77-6.649 0-4.105-3.006-6.763-7.645-6.763-1.011 0-2.12.022-2.821.043V-6.96a.59.59 0 0 1 .595-.596h2.246zM-43.113-.384h6.211l-3.095 8.385zm36.724-9.534h-7.856v2.362h2.613l-.476 13.504-6.182-13.269h-1.202l-6.181 13.269-.473-13.504h2.611v-2.362h-12.882v2.362h2.164l-1.794 4.84h-7.931l-1.791-4.84h2.256v-2.362h-7.092v2.362h1.628c.337 0 .627.313.735.596l5.903 15.594h-2.132v2.367h4.474c1.502 0 2.035-1.366 2.199-1.813 0 0 6.027-15.964 6.113-16.148.136-.3.369-.596.739-.596h1.746c.363 0 .579.296.595.596.016.268.625 13.855.704 15.594h-2.756v2.367h4.008c.976 0 1.577-.558 2.143-1.813s5.649-12.344 5.649-12.344 5.158 11.209 5.676 12.344c.572 1.258 1.073 1.813 2.051 1.813h4.042V8.634h-2.758l.682-15.594c.015-.294.291-.599.595-.599l2.18.003z" style="fill:#1c2a5b;fill-opacity:1;fill-rule:nonzero;stroke:none" transform="matrix(1.25 0 0 -1.25 63.256 37.259)"/></g><g clip-path="url(#w)" transform="matrix(1.25 0 0 -1.25 -614.261 1035.68)"><path d="M560.014 789.562c-.674-1.453-.278-2.178 1.696-1.761 4.114.868 6.278 3.179 8.844 5.606.113.108.2.191.275.266-.146-.928-.232-2.003-.275-3.189-.081-2.397.5-5.79 1.566-7.433.472-.686 1.177-.821 2.129.213-.558 1.222-1.255 2.872-1.66 4.753-.363 1.688-.483 3.566-.054 5.481a86 86 0 0 1-1.647.543l-.59.19q-.474.151-.948.281c-3.62-3.915-6.463-4.892-9.336-4.95" style="fill:url(#x);stroke:none"/></g><g clip-path="url(#y)" transform="matrix(1.25 0 0 -1.25 -614.261 1035.68)"><path d="M557.48 802.876c2.167-1.678 5.953-3.267 8.736-3.507 1.78-.153 3.749.103 5.181 1.044l.016.011c.32.564.494 1.351.235 2.479-.257-1.127-2.349-2.349-5.285-1.945-1.681.147-3.548 1.081-5.029 2.017-1.476.932-2.221 1.605-2.522 1.835-.312.26-.64.37-.944.37-1.046 0-1.782-1.311-.388-2.304" style="fill:url(#z);stroke:none"/></g><g clip-path="url(#A)" transform="matrix(1.25 0 0 -1.25 -614.261 1035.68)"><path d="M563.874 817.067c.008-.039.042-.203.072-.331.167-.657.381-1.965.963-3.828 1.193-1.449 2.453-2.967 3.017-3.658 4.19-5.123 4.215-7.539 3.487-8.826.633.401 1.274 1.05 1.565 1.764.709 1.76-.674 4.209-2.41 6.487-1.683 2.204-6.258 7.853-6.694 8.392" style="fill:url(#B);stroke:none"/></g><g clip-path="url(#C)" transform="matrix(1.25 0 0 -1.25 -614.261 1035.68)"><path d="M577.734 826.875c-.077-.935-.28-2.903-.442-4.851a68 68 0 0 1-.177-2.585 10 10 0 0 1-.003-.843 1.4 1.4 0 0 1 .035-.28c.047-.219.186-.295.267-.319.1-.026.32-.028.465.231.043.076.084.175.122.285.077.218.172.536.272.92.203.751.44 1.766.677 2.807.444 1.968.887 3.999 1.003 4.474.263 1.202-.306 1.83-.935 1.83-.584 0-1.22-.543-1.284-1.669" style="fill:url(#D);stroke:none"/></g><g clip-path="url(#E)" transform="matrix(1.25 0 0 -1.25 -614.261 1035.68)"><path d="M554.415 809.65c.92-.387 2.821-.983 4.678-2.119 2.233-1.276 4.088-2.729 4.813-3.301.371-.289.533-.4.732-.224.315.287-.271.967-.486 1.246-.865 1.134-3.976 4.954-8.432 6.462a2.2 2.2 0 0 1-.648.104c-1.427.001-2.066-1.633-.657-2.168" style="fill:url(#F);stroke:none"/></g><g clip-path="url(#G)" transform="matrix(1.25 0 0 -1.25 -614.261 1035.68)"><path d="M572.153 824.798a39 39 0 0 1-.445-1.649c1.217-2.612 1.867-4.728 1.87-7.29-.025-3.905-1.72-11.38-4.16-11.372-.94.002-2.189 2.573-3.331 5.242-1.527 3.562-1.891 6.021-2.141 7.007-.03.134-.036.158-.072.331 0 0-.041.056-.079.102-.748.863-1.653.342-1.691-.523-.041-1.13 1.405-5.476 2.268-7.549 1.828-4.401 3.324-6.656 4.821-6.586 1.945.094 3.787 2.837 4.907 6.22.927 2.8 1.502 5.464 1.502 7.285 0 3.399-1.199 6.167-3.153 9.962a17 17 0 0 0-.296-1.18" style="fill:url(#H);stroke:none"/></g><g clip-path="url(#I)" transform="matrix(1.25 0 0 -1.25 -614.261 1035.68)"><path d="M582.059 804.386c-3.069-.56-5.197-1.352-5.587-1.502a67 67 0 0 1-.243-1.95c1.729.596 3.238 1.175 4.816 1.538 6.122 1.402 11.545.549 13.37.23 2.4-.417 2.361 1.564.685 1.908-1.677.345-2.821.417-6.02.417-2.666 0-5.061-.283-7.021-.641" style="fill:url(#J);stroke:none"/></g><g clip-path="url(#K)" transform="matrix(1.25 0 0 -1.25 -614.261 1035.68)"><path d="M588.538 826.533c-7.724-2.762-12.624-10.674-14.031-24.857-.097-1.109.955-.985 1.722-.742 1.452 13.361 6.684 21.634 13.709 23.906.198.066.455.119.592.158-.08 1.168-.555 1.665-1.278 1.665q-.327-.001-.714-.13" style="fill:url(#L);stroke:none"/></g><g clip-path="url(#M)" transform="matrix(1.25 0 0 -1.25 -614.261 1035.68)"><path d="M570.559 825.887c-1.48-5.01-1.524-8.847-.932-11.32.97-4.031 4.404-8.764 5.245-9.876q.16 1.1.349 2.145c-.719.921-3.076 4.813-3.784 7.763-.74 3.082-.473 6.14.716 10.199.132.456.291 1.119.296 1.18-.236.496-.598.706-.945.706-.422 0-.821-.311-.945-.797" style="fill:url(#N);stroke:none"/></g><g clip-path="url(#O)" transform="matrix(1.25 0 0 -1.25 -614.261 1035.68)"><g clip-path="url(#P)"><path d="M575.029 795.917h19.337v5.548H575.03z" style="fill:url(#Q);fill-rule:evenodd;stroke:none"/></g></g><g clip-path="url(#R)" transform="matrix(1.25 0 0 -1.25 -614.261 1035.68)"><path d="M566.569 796.741c-2.869-1.994-5.55-4.974-6.555-7.179a10.8 10.8 0 0 1 2.325.284c1.6 2.341 4.002 4.642 6.172 6.038 3.4 2.364 5.636 3.23 6.175-2.114.308-2.763.135-6.257-1.321-8.387a30 30 0 0 1 .884-2.119c1.566 1.681 2.556 5.509 2.317 8.977-.339 2.907-.692 7.161-4.018 7.162-1.396 0-3.316-.748-5.979-2.662" style="fill:url(#S);stroke:none"/></g><g clip-path="url(#T)" transform="matrix(1.25 0 0 -1.25 -614.261 1035.68)"><path d="M555.883 795.796c-2.44-.941-1.775-3.278.832-2.235 4.902 2.022 9.242 2.06 13.583.67 5.14-1.644 8.181-2.698 12.395-7.323 1.267-1.483 2.725-.767 2.271.802-.626 2.597-8.749 6.795-13.91 8.247-2.262.637-5.098 1.053-7.911 1.053-2.596.001-5.171-.353-7.26-1.214" style="fill:url(#U);stroke:none"/></g><g clip-path="url(#V)" transform="matrix(1.25 0 0 -1.25 -614.261 1035.68)"><path d="M577.391 797.835c-.37-.505-.634-1.125-.375-1.918.397-.787.966-1.503 1.719-2.383.113-.129.514-.634 1.057-1.319 2.511-1.426 4.538-2.973 5.072-4.214-.283.873-.961 1.952-1.877 3.242-.377.528-3.005 3.623-3.552 4.303-.781.975-1.713 2.26-.548 3.382-.645-.274-1.163-.635-1.496-1.093" style="fill:url(#W);stroke:none"/></g><g clip-path="url(#X)" transform="matrix(1.25 0 0 -1.25 -614.261 1035.68)"><path d="M583.643 798.849c-.211-.13-.173-.377-.06-.563.075-.116.162-.218.252-.324.285-.33.593-.646.898-.962.95-.989 1.904-1.974 2.838-2.979.96-1.042 1.949-2.226 4.303-4.784 1.786-1.765 3.289.022 1.535 1.771a81 81 0 0 1-5.003 4.731 43 43 0 0 1-2.861 2.255c-.319.23-.644.454-.986.654q-.172.105-.352.187a.9.9 0 0 1-.33.072.5.5 0 0 1-.234-.058" style="fill:url(#Y);stroke:none"/></g><g clip-path="url(#Z)" transform="matrix(1.25 0 0 -1.25 -614.261 1035.68)"><path d="M579.464 799.141c.177-4.034 4.942-4.437 7.092-4.041-.482.507-.973 1.016-1.459 1.521-1.55-.083-4.057.555-4.155 2.859a10 10 0 0 1-1.478-.339" style="fill:url(#aa);stroke:none"/></g><g clip-path="url(#ab)" transform="matrix(1.25 0 0 -1.25 -614.261 1035.68)"><path d="M586.928 796.954a51 51 0 0 0 1.602-1.322c1.658.601 3.344 1.567 4.914 2.654-.666.219-1.509.438-2.46.635-1.377-.921-2.753-1.603-4.056-1.967" style="fill:url(#ac);stroke:none"/></g><g clip-path="url(#ad)" transform="matrix(1.25 0 0 -1.25 -614.261 1035.68)"><g clip-path="url(#ae)"><path d="M576.723 804.482h14.005v20.515h-14.005z" style="fill:url(#af);fill-rule:evenodd;stroke:none"/></g></g><g clip-path="url(#ag)" transform="matrix(1.25 0 0 -1.25 -614.261 1035.68)"><g clip-path="url(#ah)"><path d="M579.687 801.076h15.241v9.437h-15.241z" style="fill:url(#ai);fill-rule:evenodd;stroke:none"/></g></g></svg>