<svg xmlns="http://www.w3.org/2000/svg" xmlns:xlink="http://www.w3.org/1999/xlink" width="582.044" height="171.808" viewBox="0 0 44.032 12.965"><radialGradient id="b" cx="141.42" cy="24" r="24" gradientUnits="userSpaceOnUse"><stop offset="0" stop-color="#ffcb05"/><stop offset=".5" stop-color="#ffcb05"/><stop offset=".59" stop-color="#ffcb05" stop-opacity=".78"/><stop offset=".7" stop-color="#ffcb05" stop-opacity=".5"/><stop offset=".8" stop-color="#ffcb05" stop-opacity=".29"/><stop offset=".89" stop-color="#ffcb05" stop-opacity=".13"/><stop offset=".96" stop-color="#ffcb05" stop-opacity=".04"/><stop offset="1" stop-color="#ffcb05" stop-opacity="0"/></radialGradient><g fill="#fff" transform="translate(-451.644 -335.004)scale(.35278)"><use xlink:href="#a" width="100%" height="100%" x="246.005" y="634.863"/><use xlink:href="#a" width="100%" height="100%" x="266.618" y="642.863"/><use xlink:href="#a" width="100%" height="100%" x="256.24" y="650.864"/><use xlink:href="#a" width="100%" height="100%" x="256.838" y="658.864"/><use xlink:href="#a" width="100%" height="100%" x="276.215" y="666.864"/><use xlink:href="#a" width="100%" height="100%" x="246.678" y="674.864"/><use xlink:href="#a" width="100%" height="100%" x="264.763" y="682.865"/><use xlink:href="#a" width="100%" height="100%" x="245.948" y="690.865"/><use xlink:href="#a" width="100%" height="100%" x="265.582" y="712.536"/><use xlink:href="#a" width="100%" height="100%" x="275.767" y="720.536"/><use xlink:href="#a" width="100%" height="100%" x="275.114" y="728.536"/><use xlink:href="#a" width="100%" height="100%" x="265.106" y="736.537"/><use xlink:href="#a" width="100%" height="100%" x="267.966" y="744.537"/><use xlink:href="#a" width="100%" height="100%" x="265.021" y="752.537"/><use xlink:href="#a" width="100%" height="100%" x="272.571" y="774.206"/><use xlink:href="#a" width="100%" height="100%" x="274.955" y="782.207"/><use xlink:href="#a" width="100%" height="100%" x="244.904" y="790.207"/><use xlink:href="#a" width="100%" height="100%" x="264.04" y="798.207"/><use xlink:href="#a" width="100%" height="100%" x="534.993" y="634.868"/><use xlink:href="#a" width="100%" height="100%" x="542.075" y="656.538"/><use xlink:href="#a" width="100%" height="100%" x="540.992" y="664.539"/><use xlink:href="#a" width="100%" height="100%" x="526.416" y="672.539"/><use xlink:href="#a" width="100%" height="100%" x="536.32" y="680.533"/><use xlink:href="#a" width="100%" height="100%" x="539.225" y="688.533"/><use xlink:href="#a" width="100%" height="100%" x="533.635" y="696.534"/><use xlink:href="#a" width="100%" height="100%" x="528.047" y="718.203"/><use xlink:href="#a" width="100%" height="100%" x="532.012" y="726.203"/><use xlink:href="#a" width="100%" height="100%" x="538.091" y="734.203"/><use xlink:href="#a" width="100%" height="100%" x="523.007" y="742.204"/><use xlink:href="#a" width="100%" height="100%" x="512.8" y="750.204"/><use xlink:href="#a" width="100%" height="100%" x="533.225" y="758.204"/><use xlink:href="#c" width="100%" height="100%" x="507.227" y="778.871"/><use xlink:href="#c" width="100%" height="100%" x="535.339" y="785.871"/><use xlink:href="#c" width="100%" height="100%" x="542.734" y="792.871"/><use xlink:href="#d" width="100%" height="100%" x="186.632" y="601.995"/></g><path fill="#004346" d="M.267 5.384c0 .736.429 1.059 1.323 1.265l.69.148c.81.18.972.368.972.765 0 .476-.416.77-1.164.77S.902 7.996.855 7.308H.132c0 1.058.757 1.667 1.942 1.667 1.3 0 1.93-.657 1.93-1.508 0-.765-.456-1.133-1.226-1.3l-.722-.166C1.225 5.82.997 5.712.997 5.29s.302-.738.987-.738c.831 0 1.08.376 1.138.884h.722c0-1.037-.81-1.54-1.828-1.54-1.193 0-1.762.683-1.762 1.487m4.067-1.36V6.9c0 1.466.695 2.064 1.91 2.064S8.139 8.356 8.139 6.9V4.024h-.794v2.969c0 .944-.402 1.307-1.159 1.307-.677 0-1.085-.389-1.085-1.307V4.024zm4.347 0v4.81h.725V5.1l2.304 3.738h.823V4.024h-.72v3.718L9.544 4.024zM17.16 5.52c-.08-.966-.865-1.608-1.995-1.608-1.4 0-2.244 1.018-2.244 2.497 0 1.723.945 2.553 2.183 2.553a1.987 1.987 0 0 0 2.082-1.852h-.746c-.153.765-.577 1.18-1.28 1.18-.794 0-1.44-.529-1.44-1.801 0-1.323.596-1.916 1.44-1.916.735 0 1.11.355 1.251.945zm.336.924c0 1.64.944 2.532 2.318 2.532 1.46 0 2.344-1.038 2.344-2.606 0-1.736-1.019-2.485-2.34-2.485s-2.322.897-2.322 2.559m.794.026c0-1.238.643-1.908 1.566-1.908.852 0 1.535.609 1.535 1.815 0 1.281-.622 1.924-1.514 1.924-.979 0-1.587-.617-1.587-1.828m5.043-1.794h1.447c.569 0 .865.227.865.757s-.294.77-.931.77h-1.381zm-.765-.651v4.807h.765V6.832h1.323c.635 0 .857.193.878.735l.034.677a1.9 1.9 0 0 0 .088.59h.822a1.7 1.7 0 0 1-.153-.822l-.013-.53c-.013-.555-.154-.793-.596-.984a1.175 1.175 0 0 0 .704-1.145c0-.794-.49-1.323-1.587-1.323zm4.307 0v4.807h.773V6.9h1.347c.992 0 1.508-.555 1.508-1.447 0-.931-.577-1.426-1.48-1.426zm.773.648h1.18c.63 0 .905.265.905.794s-.294.794-.905.794h-1.18z"/><path fill="url(#b)" d="M141.42 0a24 24 0 1 0 24 24 24 24 0 0 0-24-24m0 36a12 12 0 1 1 12-12 12 12 0 0 1-12 12" transform="translate(.132 .132)scale(.26458)"/></svg>